/* XPM */
static char *_b1251ddc524448be04cb3adf2d65d77GYqNjFH79f4qgmSn[] = {
/* columns rows colors chars-per-pixel */
"32 32 112 2 ",
"   c black",
".  c #210F00",
"X  c #2D1600",
"o  c #271A05",
"O  c #352307",
"+  c #35240A",
"@  c #37260D",
"#  c #683100",
"$  c #794909",
"%  c #7C5210",
"&  c #7C5318",
"*  c #8B4500",
"=  c #AC5300",
"-  c #B25600",
";  c #B45700",
":  c #A8670E",
">  c #AC6E15",
",  c #A26E1D",
"<  c #896421",
"1  c #896631",
"2  c #A26F21",
"3  c #DE7300",
"4  c #DE7906",
"5  c #BC8B2E",
"6  c #CD8418",
"7  c #E88712",
"8  c #E58B15",
"9  c #E68E17",
"0  c #EF951D",
"q  c #E8981E",
"w  c #F0941D",
"e  c #C98820",
"r  c #C98928",
"t  c #D08D2A",
"y  c #E99A22",
"u  c #EF9920",
"i  c #EEA022",
"p  c #EBA326",
"a  c #ECA325",
"s  c #EBA427",
"d  c #ECA528",
"f  c #EDAA2B",
"g  c #E4AD3B",
"h  c #FCAC31",
"j  c #FFAE34",
"k  c #F1B433",
"l  c #F1B635",
"z  c #FFB136",
"x  c #F5BA37",
"c  c #FFB438",
"v  c #FFB93C",
"b  c #FCBE3F",
"n  c #F2C039",
"m  c #F3C23F",
"M  c #F9C13B",
"N  c #BC8F48",
"B  c #FFB648",
"V  c #EBA953",
"C  c #E4B365",
"Z  c #F1C240",
"A  c #F4C440",
"S  c #FEC543",
"D  c #FFC545",
"F  c #F5C944",
"G  c #F8CB46",
"H  c #FCCB44",
"J  c #F8CC46",
"K  c #FFCA49",
"L  c #F8D14B",
"P  c #FFD54B",
"I  c #FBD34F",
"U  c #FFD14D",
"Y  c #FAD64F",
"T  c #FFD64F",
"R  c #FFC351",
"E  c #FFC451",
"W  c #F5CB54",
"Q  c #FFCC55",
"!  c #FFC55A",
"~  c #FFCA59",
"^  c #FFDA53",
"/  c #FFDF51",
"(  c #FFDB54",
")  c #FFDF55",
"_  c #FFE055",
"`  c #FFE35A",
"'  c #FFE45A",
"]  c #FFE65C",
"[  c #FFE85B",
"{  c #FFE95E",
"}  c #F8D667",
"|  c #FFCB79",
" . c #FFD37F",
".. c #FFE265",
"X. c #FFEA62",
"o. c #FFEC60",
"O. c #FFED78",
"+. c #FFDB8A",
"@. c #FFDE96",
"#. c #FFDB98",
"$. c #F3D1A7",
"%. c #FCDFA1",
"&. c #FFDEAA",
"*. c #FFE3AA",
"=. c #FFF8AE",
"-. c #FBE2BC",
";. c #FFEBC9",
":. c #FFF3C1",
">. c #FFF7C0",
",. c #FFF7D7",
"<. c #FFFBD1",
"1. c #FFFAD5",
/* pixels */
"                                                                ",
"                                                                ",
"                                                                ",
"                                                                ",
"                                                                ",
"                                                                ",
"                      O e t t t t t r @                         ",
"                o % , N *.../ ) ) _ T > * # .                   ",
"              o 1 C  .@.>.W n m m F ] l i 6 $ .                 ",
"              % C -.;.%.} y 9 9 8 q L G L m 6 #                 ",
"              ,  .;.$.V a 0 w 0 w u d s A L i *                 ",
"            O N @.%.V 3 7 h c z v b q 4 s J l : X               ",
"            e *.>.} a 7 h z c c D { ` y f Y { x =               ",
"            t ..W y 0 h z j U ` ' { { / H D ( M ;               ",
"            t / n 9 w c c U ] o.{ { X.=.+.E T M -               ",
"            t ) m 9 0 z c ` o.{ { { X.1.&.! T M -               ",
"            t ) m 8 w v D ' { { { [ { <.&.! T M -               ",
"            t _ F q u b { { { { [ { O.:.#.~ ^ M ;               ",
"            r T { L d q ` { X.X.{ O.,.| Q ) ] x =               ",
"            + 5 T U p 4 y / =.1.<.:.| B K T k : X               ",
"              2 H ^ m p f H +.&.&.#.Q K ( T i *                 ",
"              & g I ^ U Y S R ! ! ~ ) T T Z 6 #                 ",
"              o < g H T { ^ T T P ^ ] k i 6 $ .                 ",
"                o & 2 5 T / / / / / T > * # .                   ",
"                      + r t t t t t r @                         ",
"                                                                ",
"                                                                ",
"                                                                ",
"                                                                ",
"                                                                ",
"                                                                ",
"                                                                "
};
