/* XPM */
static char *e0fe36b5d35c4cd9b24a7b1e86f159c9htkCl36WNDSqIUfP[] = {
/* columns rows colors chars-per-pixel */
"32 32 170 2 ",
"   c #000000",
".  c #090A0A",
"X  c #131414",
"o  c #191A1A",
"O  c #150F38",
"+  c #2A2B2B",
"@  c #282E33",
"#  c #343435",
"$  c #36363B",
"%  c #343A3E",
"&  c #3B3A3F",
"*  c #15174A",
"=  c #161C53",
"-  c #151E58",
";  c #16205C",
":  c #353E40",
">  c #3B3D41",
",  c #162362",
"<  c #19266C",
"1  c #1E2571",
"2  c #1B2975",
"3  c #1D2B7C",
"4  c #22277A",
"5  c #3C4345",
"6  c #344A4E",
"7  c #434545",
"8  c #4A454C",
"9  c #4B6277",
"0  c #54647A",
"q  c #676165",
"w  c #66757B",
"e  c #1E2C81",
"r  c #262B85",
"t  c #2B2985",
"y  c #252E8B",
"u  c #21338F",
"i  c #223495",
"p  c #24359A",
"a  c #2B319D",
"s  c #24389E",
"d  c #2737A5",
"f  c #2934A1",
"g  c #2539A3",
"h  c #2C35AD",
"j  c #2B3AAE",
"k  c #3038AB",
"l  c #2D37B4",
"z  c #293EB4",
"x  c #2C3EBA",
"c  c #2845B7",
"v  c #2A53BF",
"b  c #497481",
"n  c #507D9D",
"m  c #457BA7",
"M  c #2F3DC4",
"N  c #2D44C4",
"B  c #2C4BC2",
"V  c #2F47CA",
"C  c #2D4DCB",
"Z  c #2C53C4",
"A  c #2D4CD6",
"S  c #3346D6",
"D  c #334CDC",
"F  c #2D54D6",
"G  c #3252DD",
"H  c #1C6ADD",
"J  c #2A67CA",
"K  c #2677C7",
"L  c #2866D8",
"P  c #2876DD",
"I  c #277DD9",
"U  c #3255E1",
"Y  c #335AE2",
"T  c #3958E2",
"R  c #2E62E1",
"E  c #2C6BE2",
"W  c #3166E3",
"Q  c #336BE2",
"!  c #2976E3",
"~  c #267CE4",
"^  c #2C7DE3",
"/  c #3274E3",
"(  c #4C7DDC",
")  c #6473D7",
"_  c #4E7AE1",
"`  c #8C759B",
"'  c #917DDA",
"]  c #758387",
"[  c #6A8396",
"{  c #748896",
"}  c #4481B3",
"|  c #6C9DAA",
" . c #7896AB",
".. c #70AFBE",
"X. c #1682DE",
"o. c #1985DF",
"O. c #2687D2",
"+. c #2887DF",
"@. c #3989D7",
"#. c #2694D7",
"$. c #1C8EE0",
"%. c #2484E1",
"&. c #228CE1",
"*. c #2989E8",
"=. c #3283E2",
"-. c #3681EC",
";. c #2D91E1",
":. c #279DE7",
">. c #13A7E6",
",. c #19B8E9",
"<. c #37A6ED",
"1. c #31ABEE",
"2. c #25B3E5",
"3. c #27BAE7",
"4. c #31BBE4",
"5. c #2BAFF2",
"6. c #508AD7",
"7. c #4C95DD",
"8. c #7D90DD",
"9. c #52AEC6",
"0. c #6FA1C3",
"q. c #4897E6",
"w. c #5595E1",
"e. c #699EE4",
"r. c #48A6E9",
"t. c #48AFE9",
"y. c #56A9E7",
"u. c #54ACE6",
"i. c #58A8E7",
"p. c #60ABE6",
"a. c #6BABEB",
"s. c #64BAEF",
"d. c #16C1E6",
"f. c #1DC2EE",
"g. c #19C0F7",
"h. c #19D4FC",
"j. c #25C1EB",
"k. c #2CC4EA",
"l. c #22D4ED",
"z. c #29C5F7",
"x. c #3EC8F6",
"c. c #28E4ED",
"v. c #22EAF3",
"b. c #45C3F2",
"n. c #5CC3F1",
"m. c #74C9EE",
"M. c #66CDF4",
"N. c #68DCF9",
"B. c #78DBF9",
"V. c #7BE1FB",
"C. c #8B858A",
"Z. c #87929F",
"A. c #9E84B9",
"S. c #85A7B6",
"D. c #97A8BC",
"F. c #9AB3BA",
"G. c #89B8C3",
"H. c #93BDC7",
"J. c #96BEDA",
"K. c #A7B6DB",
"L. c #9987E0",
"P. c #989EE4",
"I. c #82A9EB",
"U. c #B5C1CA",
"Y. c #83C1EB",
"T. c #8FD3F3",
"R. c #8AE6FD",
"E. c #AAE0F3",
"W. c #B4E8F8",
"Q. c #C5CAEB",
/* pixels */
"                                                                ",
"                                                                ",
"                      ] G...|                                   ",
"                      H.V.N.R.b w #                             ",
"                      S.M.n.B.h.m.Z.o                           ",
"                      S.i.o.$.l.>.y.D.                          ",
"                       .q.L Y W l.d.m                           ",
"                  . [ 6.W U D S 3.,.@.[                         ",
"                    y.:.! D V x K I ^ u.w o                     ",
"                  % #.f.;.N j g s B E &.R.5                     ",
"                > Y.j.*.v p p p t k F / B.5                     ",
"                : u.v.I x p e 2 r h F %.z.:                     ",
"                % t.j.L h r < , 3 j F ! 5.%                     ",
"                % e.=.B a 4 , ; 3 g C E <.%                     ",
"                $ 8.T h y 2 = = 2 s B E r.:                     ",
"                % 4.Y x i < O * 3 s c Q ' &                     ",
"              q K.+.U z u 2 - ; 2 g F -.L.&                     ",
"              C.Q.a.T N s 3 , , 1 f F -.L.&                     ",
"              8 D.s.Y D j 3 < < 4 f L 1.P.>                     ",
"                @ :.R Y c 3 3 e y l P c.J.#                     ",
"                : T./ *.J a t e i Z ~ #.X                       ",
"                & E.=.j.;.M f i h O.,.O..                       ",
"                7 W.+.7._ A x u l I 2.p.X                       ",
"                + F.u.) ( ^ M d C H @.{                         ",
"                    U.w.2.k.U G P o.m   o .                     ",
"                      } t.N.f.%.X.r. .  B.5                     ",
"                      o n :.<.g.b.x.9.  % X                     ",
"                        @ 9 0 a.I.0.6                           ",
"                              ` A.8                             ",
"                                                                ",
"                                                                ",
"                                                                "
};
