/* XPM */
static char *_5738505f29a43499cc129f0827d0ea94UoKrMWZHhGhEeNm[] = {
/* columns rows colors chars-per-pixel */
"32 32 35 1 ",
"  c black",
". c #060502",
"X c #0F0D06",
"o c #110E07",
"O c #161309",
"+ c #201B0D",
"@ c #2D2612",
"# c #2F2813",
"$ c #322A14",
"% c #3D3418",
"& c #463C1C",
"* c #665729",
"= c #6F5F2C",
"- c #7C6931",
"; c #555555",
": c #806D33",
"> c #877336",
", c #887436",
"< c #8B7638",
"1 c #B09747",
"2 c #B99D4A",
"3 c #AA975E",
"4 c #CDAF53",
"5 c #D0B153",
"6 c #D4B455",
"7 c #E9C75D",
"8 c #EFCB60",
"9 c #F5D162",
"0 c #F9D464",
"q c #FCD765",
"w c #FFD966",
"e c #FFE082",
"r c #FFEAAC",
"t c #FFFCF3",
"y c #F9F9F8",
/* pixels */
"                                ",
"                                ",
"                                ",
"                                ",
"             O&&&&&&O           ",
"           XX>wwwwww>XX         ",
"           0wwwwwwwwww0         ",
"        .wwwwwwwwwwwwwwww.      ",
"       #wwwwwwwww yewwwwww#     ",
"       #wwwwwww0O ytrwwwww#     ",
"      &2wwwwwww0  ;;3wwwww2&    ",
"      :wwwwwwww0    :wwwwww:    ",
"     o<wwwwwwww0O  O<wwww77=    ",
"     5wwwwwwwwwww  5wwwww.      ",
"     5wwwwwwwwwwwwwwww0         ",
"     5wwwwwwwwwwwwww:           ",
"     5wwwwwwwwwwwwOX.           ",
"     5wwwwwwwww0&&              ",
"     5wwwwwwwww0*               ",
"     18wwwwwwwwww++             ",
"      :wwwwwwwwwwww$            ",
"      :wwwwwwwwwwwwww5          ",
"       #wwwwwwwwwwwwwwww        ",
"       #wwwwwwwwwwwwwwww99@     ",
"        %wwwwwwwwwwwwwwww%      ",
"         ,,qwwwwwwwwwwq,,       ",
"           467wwwwww764         ",
"             -000000-           ",
"                                ",
"                                ",
"                                ",
"                                "
};
