/* XPM */
static char *da85fcb56529430b81e0dd1bf44f9c2fYxhiqPAq5VxDpAg5[] = {
/* columns rows colors chars-per-pixel */
"48 48 90 1 ",
"  c #77756E",
". c #697679",
"X c #6B7A7D",
"o c #717572",
"O c #7B7C76",
"+ c #797C78",
"@ c #857769",
"# c #867B6E",
"$ c #8A7A6C",
"% c #837E76",
"& c #848077",
"* c #8F877A",
"= c #948271",
"- c #998675",
"; c #9B8976",
": c #958B7D",
"> c #9E8C79",
", c #A18E7B",
"< c #A5927E",
"1 c #5F818E",
"2 c #578294",
"3 c #5E8696",
"4 c #54879E",
"5 c #798B8E",
"6 c #618592",
"7 c #4B8FAD",
"8 c #538AA2",
"9 c #4793B5",
"0 c #4D94B4",
"q c #4694B8",
"w c #729AA7",
"e c #78A1AF",
"r c #66A2BA",
"t c #7DA6B3",
"y c #70A8BF",
"u c #3F9BC7",
"i c #3C9FCD",
"p c #38A3D6",
"a c #4299C2",
"s c #4FA2C8",
"d c #51A5CC",
"f c #44A6D4",
"g c #49A7D2",
"h c #4EA9D3",
"j c #5CACD1",
"k c #6EAAC3",
"l c #6AAFCD",
"z c #73AEC6",
"x c #7CAEC1",
"c c #6BB1CF",
"v c #929A95",
"b c #909E9C",
"n c #A79480",
"m c #A99681",
"M c #AD9A85",
"N c #A39888",
"B c #AC9D8A",
"V c #B09D87",
"C c #B29E88",
"Z c #A59F91",
"A c #91A09F",
"S c #B6A28B",
"D c #BAA58E",
"F c #A5A092",
"G c #B3A594",
"H c #BCA790",
"J c #BEA991",
"K c #BDAB97",
"L c #BDAC97",
"P c #B0A698",
"I c #B1AA9B",
"U c #B1AC9F",
"Y c #BEAD9A",
"T c #BCAE9D",
"R c #8AA6AC",
"E c #9EA7A4",
"W c #91A8AD",
"Q c #96ABAE",
"! c #9BAEB0",
"~ c #9FAFB1",
"^ c #A1ADAB",
"/ c #A8AEA9",
"( c #BDB2A3",
") c #A4B4B5",
"_ c #C0AB93",
"` c #C1AC93",
"' c #C2AD95",
"] c #C4AF96",
"[ c #C5B097",
"{ c #C6B198",
/* pixels */
"pppppppppppppppphz)(YGKLLKGY()zhpppppppppppppppp",
"pppppppppppppppc!TH'{S{{{{S{'HT!cppppppppppppppp",
"pppppppppppppl/JS{{{{C{{{{C{{{{SJ/lppppppppppppp",
"pppppppppppfxU'{S]{{{M{{{{M{{{]S{'Uxfppppppppppp",
"ppppppppppfWJ[{{SJ{{{M{{{{M{{{JS{{[JWfpppppppppp",
"ppppppppph^BS{{{SS{{{m{{{{M{{{SS{{{SB^hppppppppp",
"ppppppppgQ''m{{{DS{{[m[[[[m[[{SD{{{m''Qgpppppppp",
"pppppppp~'{{V{{{JS[[[n[[[[n[[[SJ[{{V{{'~pppppppp",
"pppppppRJ{{{S'[[]S[[[n[[[[n[[[S][['S{{{JRppppppp",
"ppppppkN_{{{SD[[[S[[[n][[]n[[[S[[[DS[{{_Nkpppppp",
"pppppjP'm{[[DS[[[M[[]m_]]_m]][M[[[SD[[[m'Pjppppp",
"ppppfE[{V[[['S[[[<]]]VD]]DV]]]<][[S'[[[V[[Efpppp",
"ppppyL{{SH[[[M[]]m_]]SS]]SS]]_m]]]M[[[HS[[Lypppp",
"ppphP{[[JS[[[<']]SC]]DC]]CD]]CS]]'<]][SJ[[[Phppp",
"pppRm[[[[M[]]DV]]'n]]JM]]MJ]]<']]VD]]]M[[[[mRppp",
"ppdICD[[[MJ]]'m]]]m''_m''m_''m']]m']]JM[[[DCIdpp",
"ppt'`C[[]'<]]]V'''M'''<''<'''M'''V]]]<']][C`'tpp",
"pgG[[mJ]]]V']]CJ''S'''<''<'''C''JS'''V]]]Jm[[Ggp",
"pe[[[]<]]]SS''SS''CJ''<''<''JC''SS''SS]]]<'[[[ep",
"pb[[[]VJ]]JC''DC''CD'`<``<``DC''CD''CJ']JV]][[bp",
"sNV[]]JV]''m'''V''CC``m__m__CC`'V'''m'''VJ]]]VNs",
"r'MJ]]]nJ''VC''<`_SC_JmJJmJJCS__<`'CV''J<]]]JM'r",
"t[JM]]]J<'''<'`mDJDVJJMJJMJJVDJSm_`<`''<J']]MJ]t",
"A[]VV]''VD''VJ_J<JJVJJMJJMJJVJJ<JJJV`'DM'''VV]]A",
"F]]]MJ''DM'`CVJJmJJMJJMJJMJJMJJmJJVC_`MD''DM]]]Z",
"B]]]JM'''<__JMJJMJJ<JJMJJMJJ<JJMJJMJJJ<'''MJ']]B",
";D]]'CM''D<JJ<JJMCJ,HHMHHMHH,JCMJJ<JJ<D`'MV'']D;",
"B<D'''MD`_MDJSmJVMHmSDMDDMDCmHMVJmCJDMJ_DM'''D<B",
"v'<D''Jm_JSMJJ<JDMDCmDMDDMDmCDMDH<JJMSJJmJ''D<`v",
"w]_<D''VmJJ<JJMSDmDD,DMSSMD,DDmDSMHD<JJmV_`D<_'w",
"0S''<D`_MSJS<HMMD,DD,DMCCMD,DD,DMMD<SJSMJJD<''S0",
"p5H'J<SJD<HJmDDmDMMD<DMVVMD<DMmDmDSmHD<DJS<D'D5p",
"pq*J'D<HJMMHMMD,DS,DmSmMMmSmD>SD,DMMDmmJD,D_J*qp",
"ppqOCJS<JJnDDnDmMD<SmSmMMmSmS<SmmDnDS<HH<SJCOqpp",
"pppa6:SCnDCmD<VS,SmSmVmmmmVmSmS,SV<DmCD<VS:6appp",
"ppppp8%CmVD,SS,SnSmCmMmmmmMmCmSnS>SS,DMmC%8ppppp",
"ppppppuX<,SS>DmSmMmmmmmmmmmmmmMmSnS>SS><Xupppppp",
"pppppppi8&;DmCmmMmmnmnnnnnnmnmmmmmCnS;&8ippppppp",
"ppppppppp7 MMmCmCnMnm<<<<<<m<MnVnVmMM 7ppppppppp",
"ppppppppppuXm<S<S<C<M<<<<<<M<C<C,S,nXupppppppppp",
"pppppppppppi3#M>M;C,M<<<<<<M,V;M;m#3ippppppppppp",
"ppppppppppppp2=m,;M;M<<<<<<M;M;,m=2ppppppppppppp",
"pppppppppppppp9%=n,-M,<,,<,M-,<=%9pppppppppppppp",
"ppppppppppppppp0+<--M,<,,<,M--<+0ppppppppppppppp",
"ppppppppppppppppqO=;m;<,,<;m-=Oqpppppppppppppppp",
"pppppppppppppppppi1@,;<>><;,@1ippppppppppppppppp",
"ppppppppppppppppppi4O$----$O4ipppppppppppppppppp",
"ppppppppppppppppppppa2.oo.2apppppppppppppppppppp"
};
