/* XPM */
static char *_265bc5c26c24c62c5ee00145a2b12a9jdUD0IQgnEnScwUr[] = {
/* columns rows colors chars-per-pixel */
"48 48 185 2 ",
"   c #0B6DAC",
".  c #0B6DB2",
"X  c #0C72B5",
"o  c #0676BE",
"O  c #0A76BC",
"+  c #0578BE",
"@  c #0D79BF",
"#  c #1275B5",
"$  c #1A77B5",
"%  c #1778B3",
"&  c #1B79B6",
"*  c #1377BA",
"=  c #147BBC",
"-  c #1B7CBA",
";  c #227BB6",
":  c #217DBA",
">  c #297DBD",
",  c #0676C1",
"<  c #0976C1",
"1  c #0679C3",
"2  c #0C7BC3",
"3  c #0F7EC9",
"4  c #127EC5",
"5  c #197FC5",
"6  c #127FC8",
"7  c #2382BE",
"8  c #2B85BD",
"9  c #3687B7",
"0  c #0E80C4",
"q  c #0E80C9",
"w  c #1481C5",
"e  c #1B83C6",
"r  c #1E88C7",
"t  c #1583C8",
"y  c #1C86C8",
"u  c #1F88CA",
"i  c #2285C6",
"p  c #2986C4",
"a  c #2488C7",
"s  c #2C8AC5",
"d  c #2287C9",
"f  c #2887CB",
"g  c #2489CA",
"h  c #2B8CCA",
"j  c #338CC5",
"k  c #3C8EC1",
"l  c #328ECB",
"z  c #388FCD",
"x  c #2F90CD",
"c  c #3790C5",
"v  c #3D92C7",
"b  c #3492CD",
"n  c #3B94CC",
"m  c #3798CD",
"M  c #3E99CE",
"N  c #3595D1",
"B  c #3C96D1",
"V  c #3C99D1",
"C  c #4194C7",
"Z  c #4396CD",
"A  c #4A97CD",
"S  c #4499CE",
"D  c #4A9BCC",
"F  c #529ECD",
"G  c #4196D0",
"H  c #439AD2",
"J  c #4B9DD2",
"K  c #479DD9",
"L  c #519FD2",
"P  c #53A0CE",
"I  c #5BA1CD",
"U  c #4BA1D6",
"Y  c #4CA4D9",
"T  c #54A2D4",
"R  c #5BA4D4",
"E  c #5CA9D6",
"W  c #54A3D9",
"Q  c #58A6D9",
"!  c #55A9DE",
"~  c #5DABDC",
"^  c #62A6D3",
"/  c #63AAD6",
"(  c #6BADD6",
")  c #65ACDA",
"_  c #6BAEDA",
"`  c #67B1D4",
"'  c #6EB0D4",
"]  c #64B2DE",
"[  c #6CB3DD",
"{  c #76B1D7",
"}  c #79B2D7",
"|  c #73B3DC",
" . c #7CB5DD",
".. c #75B9DE",
"X. c #7BBADE",
"o. c #5AAAE3",
"O. c #5FB0E4",
"+. c #60AFE2",
"@. c #64B3E4",
"#. c #6BB6E3",
"$. c #6FB8E2",
"%. c #73B6E3",
"&. c #7DB7E0",
"*. c #74BBE4",
"=. c #7ABCE4",
"-. c #73BCE9",
";. c #7FBDE8",
":. c #7CBFE9",
">. c #7DC3E7",
",. c #7CC1E9",
"<. c #7DC3EC",
"1. c #7DC1F0",
"2. c #80B7DB",
"3. c #81B8D8",
"4. c #80BADD",
"5. c #87BDDD",
"6. c #86BADE",
"7. c #88BEDE",
"8. c #90BEDD",
"9. c #83BEE3",
"0. c #87BDE1",
"q. c #87BEE2",
"w. c #81BDE2",
"e. c #8DBFE1",
"r. c #88BFE2",
"t. c #80BEE9",
"y. c #92C2DF",
"u. c #87C0E4",
"i. c #81C2E5",
"p. c #8BC0E2",
"a. c #8FC0E0",
"s. c #8EC4E5",
"d. c #8DC2E3",
"f. c #82C1E9",
"g. c #81C1EB",
"h. c #81C4EC",
"j. c #82C4EB",
"k. c #8EC5E8",
"l. c #8DC6EB",
"z. c #87C9EC",
"x. c #83CAEE",
"c. c #8FCAED",
"v. c #8ACBEE",
"b. c #95C1E0",
"n. c #97C6E6",
"m. c #93C4E4",
"M. c #99C5E3",
"N. c #9BC8E4",
"B. c #9CC9E7",
"V. c #93C6E9",
"C. c #95CBEC",
"Z. c #95CAEB",
"A. c #9DCEED",
"S. c #9DCDEE",
"D. c #9DCCEA",
"F. c #86CCF2",
"G. c #8DCDF6",
"H. c #94CDF1",
"J. c #94CEF1",
"K. c #92CAF1",
"L. c #9BD1F3",
"P. c #9DD2F0",
"I. c #A5CEE6",
"U. c #A4CFE9",
"Y. c #A5CFEC",
"T. c #AAD1EA",
"R. c #AAD4ED",
"E. c #ACD4ED",
"W. c #ABD8EE",
"Q. c #B4D6ED",
"!. c #B3D8EF",
"~. c #A0D5F3",
"^. c #A3D6F4",
"/. c #A1DAF7",
"(. c #ADDBF6",
"). c #AEDCF4",
"_. c #ABD4F3",
"`. c #B3DAF4",
"'. c #BCDCF1",
"]. c #C1DEF0",
"[. c #C4E1F5",
"{. c #CBE4F4",
"}. c #CEE6F9",
"|. c #D1E7F5",
" X c #D9EAF5",
/* pixels */
", , , , , , , , , , , , o o 1 1 1 1 1 1 < < < < < < < < 2 2 2 2 2 2 2 2 2 2 2 2 2 4 4 4 2 2 4 4 ",
", , , , , , , , , , , o O O 1 1 1 1 1 1 < < @ 2 @ 2 2 < 2 2 2 2 2 2 2 2 2 2 2 2 2 2 4 4 2 2 2 4 ",
", , , , , , , , , , , , , , , < O @ X X = $ n U U s - = X @ 2 2 2 2 2 2 2 2 2 2 2 2 4 4 2 2 2 w ",
", , , , , , , o o , , , , , O X & M @.-.h.g.9.9.u.k.C.J.z.) k & * 2 2 2 2 2 4 2 2 2 4 4 2 2 2 w ",
", , , , , < < o o , , , < X 8 @.,.=.| | | _ _ _ _ _ |  .5.V.L.J./ : * 2 2 2 4 2 2 2 4 4 2 2 4 w ",
", , , , , , o , 1 < < O 8 #.g.} { ( ) E R T T T T R R / _ | 4.s.L././ : * 2 2 2 2 4 4 2 2 4 4 w ",
", , , , , , , o 1 1 * T ;.| _ ) R T L J H G G G G S J Q ) |  .3.5.B.R.c.v * 2 2 4 4 2 0 6 6 4 4 ",
", , , , , , o , O $ #.=._ / R L H B n b l l l l l b V T _ &.q.p.7.q.b.T.~.~ % 2 3 3 0 0 4 4 4 4 ",
", , , , , o + < > g.{ ) Q L A C c l f f a g d d d g l H ^  .V.S.S.m.e.a.U.(.' $ 4 q q 4 4 2 2 w ",
", , , , , , o : 1.| / T J Z b h g d i e e w w w w e i h H ) r.Y.Q.Q.I.m.a.U.`.] % 2 4 4 2 0 2 w ",
", o , O , , & -.| E T A n h g y e w 5 4 4 2 2 2 2 4 4 e h S ( m.Q.[.].Q.M.m.R.).) = 3 4 2 q w w ",
"o , , O O * ] %.^ T G z s i e 5 4 4 2 2 2 < 2 < < 2 2 4 e a S | D.[.|.{.Q.M.y.E.^.S 4 4 4 3 w w ",
"o , , , O A =./ F S b f i e 4 4 2 < < < < < < < < < 2 2 2 5 s J X.E.}. X{.E.8.m.W.K.p 0 4 w w w ",
", , , 1 & j.( T S z f e w 4 2 < < < < < < 2 < 2 2 < 2 2 2 2 w h T s.'. X X[.B.2.M._.[ = 4 4 w w ",
", , o O ~ | R H b s i w 4 2 < < < < < < < < < 2 2 2 2 2 2 2 4 e b ) D.{. X}.E.6. .D.P.j 6 4 w w ",
", , O ; <./ J B h i 5 4 2 < < < < < < < < < < 2 2 2 2 @ 2 2 2 4 i G | R.{.}.Q.m._ X.S.%.- w w w ",
", , O R | T S l g e 4 2 < < 1 < < < 2 < < < < 2 2 2 2 2 2 2 2 2 4 f L r.!.[.'.m.` ( k.K.8 w w w ",
", , . g./ J n s y 4 2 < < < < < < < < < < < 2 2 2 2 2 2 2 2 2 2 2 e l / V.`.Q.V.' R %.C.T = w e ",
", o p t.R S l i e 4 < < < < < < < < < < < < 2 2 2 2 2 2 2 2 2 2 2 w i S | B.T.V.( L E s.<.= e d ",
"o O T | T n s i w 2 < < < < < < < < < < < < 2 2 2 2 2 2 2 2 2 2 2 2 w h T 9.B.p.( J F X.G.7 d h ",
"o X [ ^ D b g e 4 < < < < < < < < < < 2 2 2 2 2 2 2 2 2 2 2 2 2 2 2 0 r S ) 9.X./ H S ( l.v g b ",
"o X =.R S l d e 2 < < < < < < < < < < < 2 2 2 2 2 2 2 2 2 2 2 2 = 2 0 e l T ] ) T V Z R f.Q h B ",
"o X X.T Z h i 5 2 < < < < < < < < 2 2 2 2 2 2 2 2 2 2 2 2 2 2 2 2 2 2 w g B Y T H m n L &.~ s B ",
", X ..L n f y 4 2 < < @ < < < < 2 2 2 < < 2 2 2 2 2 2 2 2 2 2 2 2 2 2 4 e f N B b x b J | -.7 l ",
", # ..F n f e 4 2 < < < < < < < < < < < 2 2 2 2 2 2 2 2 2 2 2 2 4 2 2 w w y d f f h x H _ -.: d ",
", # *.F n g e 4 < < < < < < < < < < < < 2 2 2 2 2 2 2 2 2 2 2 2 2 4 4 4 w w w y i g x G / @.= y ",
", # =.F n g e 4 < < < < < < < < < 2 < < 2 2 2 2 2 2 2 2 2 2 2 2 2 2 2 2 w w w w y g x S / Y w t ",
"O # ,.I n g e 4 2 < < < < < < < < 2 < 2 2 2 2 2 2 2 2 2 2 2 2 2 2 2 2 2 w q w w e g b G ~ Y w w ",
"O X [ ^ n h y 5 2 < < < < < < < < 2 2 2 2 2 2 2 2 2 2 2 2 2 2 4 2 2 4 4 4 w 4 w y f b H ~ b w e ",
"O O Q [ Z h y 5 2 < < < < < < < < 2 2 2 2 2 2 2 2 2 2 2 2 2 4 4 2 2 4 4 4 4 4 w y f b J @.7 e y ",
", , 8 g.A l i e 2 < < < < < < < < 2 2 2 2 2 2 2 2 2 2 2 2 2 4 4 2 w 4 4 4 4 w e d h m D O.- y a ",
"1 ,   z.R l a e 4 2 @ < 2 2 < < < 2 2 2 2 2 2 2 2 2 2 2 2 4 4 w w w w w w w w e d h V T U e y y ",
"1 O O Q | C f y 4 2 < < < < < < < 2 2 2 2 2 2 2 2 2 2 2 4 w w w e e y e w w w y g b S +.s e y y ",
", , o 7 v.F l d t 4 2 < < < < < < 2 2 2 2 2 2 2 2 2 2 w w w e y d d d d y e y d h m F o.e e e y ",
"O 1 < O #._ v s y 5 2 < < < 2 2 < 2 2 2 2 2 2 2 2 2 0 w w e y d g h h h g d d g b M ~ l e e e y ",
"< 1 O < - F.P j i e 4 2 < < 2 2 < 2 2 2 2 2 2 2 2 2 w w e y d h h b b b h f f h B T ! - t e e y ",
", < O , O P =.S s d w 4 2 < 2 2 2 2 2 2 2 2 2 2 2 2 4 w e y d g h b b b b h b n K @.j e y e y y ",
", , < , < $ *._ n f e w 4 2 2 2 2 2 2 2 2 2 2 4 4 2 4 w w y i g h b N b n n M D @.W p r y y y y ",
", , < < < O - h./ n f y e 4 2 2 2 2 4 2 2 2 2 2 2 2 2 w w e y d h b v M V H L [ #.c b h d y y y ",
", , o < < 1 < 8 C.^ b d y w 4 2 2 2 2 2 2 2 2 2 2 2 2 0 w w y g x v S H K R | ;.A S V b f d y y ",
"1 1 + < < < @ * s x.) v f i e 5 4 2 2 2 2 2 2 2 2 2 2 2 w e d h M J T R E *.>.F T U H N h d y r ",
"1 < < < < 1 < @ < 7 >.| J j p y e w 4 5 5 4 4 4 4 4 4 w w y g b H W / ( i.[ D U W W H N h d r y ",
"1 < < < < < 1 < < < : / F.E v s i d e e e e w w w w e e y a l n J / | v.R C G H U K G b h r y y ",
"1 < < < < < 2 < < 2 < O 9 >.<.E Z l f g d i i y y i d d h h v J ( h.*.v l G W G n m m h d y e e ",
"< < + < < < < < < < 2 < 2 # k >.v.[ T Z n j j s s l l n S P #.<.] c s f h n H b h h h g r e e e ",
"< < < < < < < < < < < < < 2 2 O 7 T *.,.:.*.#.[ [ #.-.$.*.#.n - 7 i d y y i a d d d d r r e w e ",
"< < < < < < < < < < < < < 2 2 2 2 2 @ $ s M B n n M M 7 = @ w w w w t y y y y y r d r r y y e y ",
"1 < < < < < < < < 2 < 2 2 2 < 2 2 2 2 2 2 2 4 4 w w 4 4 6 4 w w w w w e e y u d d d r r y y y y "
};
