/* XPM */
static char *result[] = {
/* columns rows colors chars-per-pixel */
"48 48 38 1 ",
"  c #228ECE",
". c #208ECD",
"X c #1F8DCC",
"o c #1E8CCB",
"O c #1E8BCC",
"+ c #1D8ACB",
"@ c #1C89CA",
"# c #1B88C9",
"$ c #1A87C8",
"% c #1A87CA",
"& c #1986C9",
"* c #1885C8",
"= c #1784C7",
"- c #218FCE",
"; c #1E8BCB",
": c #1A87C9",
"> c #1683C6",
", c #1584C6",
"< c #1684C7",
"1 c #1585C7",
"2 c #1483C8",
"3 c #1484C6",
"4 c #1583C6",
"5 c #1583C7",
"6 c #1484C7",
"7 c #1F8CCC",
"8 c #1584C7",
"9 c #1D8BCB",
"0 c #1382C7",
"q c #1685C7",
"w c #1684C8",
"e c #1483C7",
"r c #1584C9",
"t c #1484C8",
"y c #1D8BCA",
"u c #1986C8",
"i c #1281C6",
"p c #1583C8",
/* pixels */
"    .....XXXXooooO++++++@@@@#####$$%%%%&%&&***==",
"    .....XXXXooooO+++++@@@#@####$$$%%%&&&&&***==",
"    .....XXXXooooO++++@@@@#@######$%%&&&&&****==",
"----.....XXXXooooO+++@@@@@@@####$$$&&&&&&&****==",
"----......XXXXooo+++++@@@@@@@###$$$%&&&&&*****==",
"----.....XXXXoooo+++++@@@@@#####$$$%&&&&&&****==",
"---.....XXXXooooo+++++@@@@######$$$%&&&&******=*",
"-.......XXXXoooo;+++++@@@@@####$:$$%&&&&&*****=*",
"-.......XXXXoooO++++++@@@@@###$$:%%&&&&&&***====",
"--......XXXXoooO+++++@@@@@@###$$:%%&&&&&&***====",
"---....XXXXXoooO+++@@@@@@@@###$$:%%&&&&&&***====",
"......XXXXXXooo++++@@@@@@@@###$$:%%&&&&&*****=*=",
"-.....XXXXXooo;++++@@@@@######$$:%&&&&&*****====",
"-.....XXXXoooo;++++@@@@@#####$$$:&&&&&&****=====",
"-..-..XXXooooo;++++@@@@@####$$$$:%&&&&&****===>=",
"-.....XXXooooo;++++@@@@@####$$:::%&&&&&****===,<",
".....XXXXoooOO++++++@@@@######:%%%&&&*******==12",
".....XXXXoooOO+++++@@@@######$:%%%%&&&****====12",
"....XXXXXooo++++@@@@@@######$$:%%%&&&****=====12",
"....XXXXoooo+++++@@@@@#####$$$:%%&&&&****=====12",
"..XXXXXXoooo+++++@@@@@#####$$$:%%&&&*****=====12",
"..XXXXXooooo+++++@@@@@#####$$$:%&&&&&*=**====>32",
"..XXXXoooooo+++++@@@@@#####$$$:&&&&&*****====>32",
"...XXXXoooo;+++++@@@@@#####:::%&&&&******==<4562",
"..XXXXXo7OO+++++@@@@######$:%%%&&&&******==13222",
".XXXXXooXO++++@@@@@@@@###$$:%%%&&&*******==13222",
"XXXXXooooO+++@@@@@@@@@##$$$:%%%&&&*****====13222",
"XXXXXooo;+++++@@@@@@####$$$:%&&%&&*****====83222",
"XXXXXooo9+O+++++@@@@####$$$:&&&&&&&***=====,3222",
"XXXXoooo9+O++@@@@@@#####$$$:&&&&&&&***=====,3220",
"XXXXoooo9+O++++@@@######$$$:&&&&&&****=====,3220",
"XXooXooO;+++++@@@@######:::%%%%&&*****qqqww6e200",
"XXoooooO++++++@@@@####$$:%%%&&&&*****=111rr22200",
"XXoooooO++++@@@@@@####$$:%%&&&&******=111t222200",
"XXooooo++++@@@@@@@#####$:%%&&&&****===1112222200",
"XXoooo;+++++@@@@@@####$$:%%&&&&****===1132222000",
"Xoooooy+++++@@@@@###$$$$:%&&&&****====1132222000",
"oooooyy+++@@@@@@######$$:%&&&&****====1132222000",
"oooyyyy++@@@@@@@#####$$$u&&&&&****====1132222000",
"oOO++++++@@@@@######$$:%&&&&&&****=q118622200000",
"oOO++++++@@@@@####$$$$:%&&&&&****==111322220000i",
"oOO++++++@@@@@####$$$$:%&&&&&****==1113222200000",
"oOO++++++@@@@@#####$$$:%&&&&&**====,113222200000",
"oOOOO+++@@@@#######$$$:%&&&&*****==1113t2220000i",
"oO++++++@@@@######$$$$:%&&&******==111322220000i",
"y+++++++@@@@#####$$$$$:%&&&******==111322200000i",
"o++++++@@@@@####$$$$$$:%&&&******==111322000000i",
"O+++++@@@@@######%%%%&&&&*****=====p2222220000i0"
};
