/* XPM */
static char *_49efecad09540b6eed9de913fb0d087l4roe09Ccy0vA5Ua[] = {
/* columns rows colors chars-per-pixel */
"48 48 166 2 ",
"   c #1C1B1D",
".  c #221E1F",
"X  c #1E1F22",
"o  c #211E20",
"O  c #1F2122",
"+  c #232325",
"@  c #292627",
"#  c #292927",
"$  c #252529",
"%  c #29272B",
"&  c #272A2D",
"*  c #2B2B2C",
"=  c #302923",
"-  c #312B29",
";  c #36322F",
":  c #38322D",
">  c #2C2E31",
",  c #312D31",
"<  c #2E3134",
"1  c #2E353A",
"2  c #343334",
"3  c #3A3636",
"4  c #343936",
"5  c #3C3A36",
"6  c #333639",
"7  c #3A373A",
"8  c #363A3C",
"9  c #3B3C3C",
"0  c #413B36",
"q  c #423D3C",
"w  c #3D413F",
"e  c #45423E",
"r  c #49423E",
"t  c #373C40",
"y  c #3B3E41",
"u  c #433D42",
"i  c #3D4243",
"p  c #3F434A",
"a  c #434443",
"s  c #494543",
"d  c #454946",
"f  c #4A4A46",
"g  c #434649",
"h  c #4E474B",
"j  c #454A4B",
"k  c #4B4D4C",
"l  c #504B46",
"z  c #514B49",
"x  c #584F4E",
"c  c #4D514E",
"v  c #52524E",
"b  c #58514E",
"n  c #474D51",
"m  c #4A4E51",
"M  c #4D5353",
"N  c #4F5659",
"B  c #4F595B",
"V  c #525554",
"C  c #5C5552",
"Z  c #545A55",
"A  c #5A5C56",
"S  c #525659",
"D  c #585758",
"F  c #555B5B",
"G  c #5A5D5B",
"H  c #615956",
"J  c #5E6257",
"K  c #57605C",
"L  c #5C625D",
"P  c #61645E",
"I  c #64695F",
"U  c #565D61",
"Y  c #595E62",
"T  c #576161",
"R  c #5D6463",
"E  c #5F6A63",
"W  c #5E6669",
"Q  c #5F6B6B",
"!  c #616563",
"~  c #646A65",
"^  c #6A6E67",
"/  c #616669",
"(  c #656B6A",
")  c #696E6B",
"_  c #6A7066",
"`  c #65706B",
"'  c #6C726D",
"]  c #71746E",
"[  c #71786D",
"{  c #666E71",
"}  c #6A6E70",
"|  c #667172",
" . c #6D7473",
".. c #6C7975",
"X. c #677178",
"o. c #6C757A",
"O. c #6E7B7A",
"+. c #717674",
"@. c #737975",
"#. c #797C75",
"$. c #727778",
"%. c #747B7B",
"&. c #7A7E7C",
"*. c #76817D",
"=. c #7B817E",
"-. c #81847D",
";. c #747C80",
":. c #797F82",
">. c #7B8281",
",. c #7B8383",
"<. c #7B8180",
"1. c #7D8281",
"2. c #7E8381",
"3. c #7C8283",
"4. c #7E8583",
"5. c #7F8782",
"6. c #7D8480",
"7. c #7C8486",
"8. c #7B8383",
"9. c #788885",
"0. c #7D8588",
"q. c #7C8689",
"w. c #808483",
"e. c #828787",
"r. c #818684",
"t. c #878C87",
"y. c #858A84",
"u. c #838989",
"i. c #848889",
"p. c #878B8A",
"a. c #878E8F",
"s. c #838B8A",
"d. c #8A8E8B",
"f. c #898E8D",
"g. c #8A8E8A",
"h. c #8E938D",
"j. c #8D918F",
"k. c #8E938E",
"l. c #8A918E",
"z. c #858F90",
"x. c #868F91",
"c. c #8A9190",
"v. c #8C9393",
"b. c #8C9190",
"n. c #8E9492",
"m. c #8E9494",
"M. c #8B9393",
"N. c #929797",
"B. c #979C97",
"V. c #929B96",
"C. c #979D9B",
"Z. c #979E9B",
"A. c #939A9B",
"S. c #999D99",
"D. c #999D9B",
"F. c #9A9F9D",
"G. c #9AA19D",
"H. c #9BA3A1",
"J. c #9DA3A0",
"K. c #9EA2A0",
"L. c #9BA5A7",
"P. c #9CA3A0",
"I. c #A2A7A7",
"U. c #A9AFA9",
"Y. c #A4ABAB",
"T. c #AFB4B0",
/* pixels */
"@.' ^ L k G G h u 7 * @ 2 8 ' <.&.&.&.3.f.$.' @.@. .R S F R ( { b.L.x.( N ! R *.' ~ G #._ v e G ",
"y.~ P G L ^ L a u 7 , $ 2 a  .%.&.:.a.*.' +.@.*.<.'  .( ! V $.<.q.H.u. .( ! ( *.^ G #.@.J.! V Z ",
"h.J V V L G d a q 2 7 # o 8 W :.f.m.J.t.+.G ) r.3.) ) ) L i R b.4.C.=.~ D #.&.( w.&.G ' h.+.R R ",
"C.R ( V ~ &.D q 9 2 q 3 + < Y i.F.C.S.h.~ Z R ! Z M ! F c c ) <.n.m.3.j k &.&.~ A ] G ( +.F ) ) ",
"5.~ k k L f a s 2 2 f * $ < n / i.F.B.T.%.) #.M M F G a 8 N &. .5.' Z ) #.&. .L L c G ' +.k ! Z ",
"' L f * d a 2 q 3 s q # + * j N =.d.h.f.#.L L ~ Z V a > > M 5.u.n.#.R R ! R ) ! ! M Z G G a G L ",
"@.Z ( k S d 2 s z x z 9 $ & i n &.h.A.i.4.R ~ ^ ~ Z g 8 1 F &.F.l.t.@...R W R G Z F R L V k ] ] ",
"G.R +.) D q 2 s s C h 9 8 O 6 V =.7.A.N.3.' ^ ) ~ L ) 1 > n ,.m.y.U...~ R ( ! ! R ~ F Z G ! g.' ",
"r.) A 4 5 3 2 q e z z a k $ < ) ..R d.w.+.G ~ Z G G M j k 4 8 Z +.d.#.i.I.e.$.$.^ c j c L ^ ] ~ ",
"N G k f a 9 3 ; q q 5 3 q 9 + 8 $.b.n.+.+.+.@.f f f i V V c < k G c V G ) ^ ! ~ ' L c i Z ~ @.M ",
"M M M d d a 9 5 q e e 9 q 2 $ y %.u.l.+.G D A C C f 7 j  .+.~ Z d j V w V ' F c  .~ L a ' L !  .",
"g g g a f a a e 5 e f # # 3   + F 3.Y.*.' P C 0 e 9 2 $ ( &.#.@.k 9 d 4 8 Z F R ~ ^ L J ' ! ^ #.",
"R N n j F k f f e s z s s e + + R $.l.+.+.! A z q +   X G @.&.t.( k y 8 k R L ' @.^ J P ] ~ G ) ",
"&.F ( F ) G V v s s 3 a s 5 # + V &. . .H V z H H 2 + + V R &.y.' ~ i > S r.) R ' ^ P ' ' R ' ^ ",
" .) $.)  .G G V f s q q r : # > V #.+.) ! C z H H q * % 8 R -.&.) L j + 8  .) ( ' ^ ' @.' E ' Z ",
"*.@.' +.@.! ! R V v f 3 0 0 # # M #.L D C 0 : r b 2 + . y ) #.&.@.' R 6 < R ) ~ ~ R ~ ~ ` R ) T ",
") +.&. .%...) / G M f 9 5 ; # > a R G k s 0 : = - . + o y +.@.t.' ' Z 8 8 Z R ) ) ( L T ` T Q | ",
"@.i.&.} &.$.;.$.( S k a q * # $ w k k a 9 C C 3 @ o   > Y p.+.%.J Z d + 8 a L u.5.) E T ) |  .R ",
" .+.a.&.<.N.x.$.} G k d s * > > j G ! f d D z z # +   + m #.%.@.I J f > k ~ ) %.' ( u.,. .( ( Z ",
"' ( O.,.$.,.&.W ( G F D a q a 2 M ( G 9 a v h h 2 #   * Y } ( @._ [ J 2 2 M ~ ' F ( *...( ( F M ",
"c g { <...$.( ( ( G G G f s a < i ^ ~ 9 a z a , > 2 + & j ! #.L L ~ Z j < M  .' ( @.5.@.$...R G ",
"j N ) $...<.&.&.) F k k a a i y 2 G v z s q s 2 + X + 6 U @.J.L L ' ~ Z 6 U ) ' ' +.@.~ $.( R R ",
"R ( (  .@.%.%.+.( M k k k m k a > a D G e q q 2 > > > y n ~ @.~ E L F @.n F ' L %.w._ ~ ~ ~ G M ",
"( ) ) ' ) ^ R L R G k k d a V F k V ~ P f q 2 + $ > 8 F F G ] ' ~ d k ' k k ' ! +.&.~ !  .&.R k ",
"R Z ! 3.N.) Z M V F M c 9 a M k F V M k D k 8 % + % 8 M g ! #._ #.Z ~ G 8 4  .( V +. ...<.&...R ",
"R ! ( n.+.! C F R G F G d k k c V M G j V f 7 * o $ 6 n F ) -.#.@.L ^ G 8 6 R ! M +.L ' $.%.+.R ",
"( ~ G F ! ! D F F G ~ ( V c Z ! R i i j F V 2 @ + $ g R w. .=.#.Z @.! A a 8 8 V #.&.r.R G G ( R ",
"( R M i ! +.F V S ) ~ ! Z L V D V V 8 i V d 9 $ $ 8 j ..%.&.#.@.@.! P v ! 4 2 i R  . .R ! Z V G ",
") L  .R V  .~ F R R ~  .) R c c j 8 < M j 8 y $ $ j X.s. .r.p.=.@.L f e V R ! 8 4 j ! R ' ! G V ",
"~ L F R k k R Z G ^ A ' @. .G V k k < j j 6 k * + < $.x.<.r.3.w.k d J 9 6 #.&.S y i G L L Z c j ",
"V d c G G f V G ~ _ J k L A d d k M 9 & < g 6 > $ 6 %.A.b...+.' ) i c M & G R Y V y a ~ G a M i ",
"R Z Z G L V k V R -.f d V c d 9 7 y y a M m < $ O < ( m.N.i.*.*.4.R i a 8 2 i ( R R y k G i M t ",
"( V Z V L V j S G ~ C a k c k 7 7 a a 8 m V a $ X t $.b.m.l.=.' G T F W N j j L Z G k a d j i j ",
") L ~ V c c M F G G Z w c k d w 9 7 9 7 k V g & & F t.&.*.^ ' @... .$.o.,.R R K N g F f k k 2 M ",
"( R G c c f c G ^ _ L d D f 9 9 9 4 9 9 g F k 4 8 <.b.a.%.~ +.l.V.( O.Q { F M R R 8 +.V M j 8 j ",
"..R F A c k g G D G ! c c a a 5 3 q 3 d y M a 8 j $.m.q.s.*.@.@.L  .,.x.| U @.M N Z a a V g a G ",
" .L F Z M M F ! R w.+.G v a a 7 7 9 2 8 i F R U Q s.s.,.m.u.^ L Z %...M.W n G N j M 8 V G S  .+.",
" .L Z V V c k L G ( ! F k k d * 9 a g 8 y j M ;.X.q.x.<.<.( R G ~ ) L G i < y g k i a L G ..R F ",
"=.~ L F ' F i G G R ~ G V D a a 2 y > 2 y n F X.X.q.s.<.) L ( ( &.@.( T 1 1 i 6 8 8 G ! R ' R V ",
"~ )  .R L G V Z ~ ) ' ! G g d a 2 +   $ M ;.X.W o.q.>.| ( j G ~  .'  .B G 8 2 + < d ~ G R R F c ",
"' L ~ ~ L ~ V c Z ) $.R F D k a f a   X t ,.&.,.,.4.<.~ ! F Z 9 ~ ~ G k } 2 g j < * 7 Y R S V d ",
"+.V ) ~ ^ @.L Z Z F ..` R V a f z C * & y ) R $.@.5.$.^ ~ a k 9 k G Z n +.k k D f 2 2 j ) R G f ",
"L L %.` %.^ ~ k V S ( ..) G k e s q 2 8 Q  . .R V ~  .~ R F ) ~ a F V j ( j g k M G M j ! D D s ",
"E R ) ) @.~ F k j Y ( ` ..T M s s q 9 8 T Q ..*.' R  .' ~ G R ( g a 4 8 R g 8 g g F / R } V a 3 ",
"....` ) R G F n g F ! ( ( R M f s a f p ( *...E ' %.' t. .) ) ) c i Z R n X.j i j k G / R v 5 e ",
"9.O...( R N c j n ( ( ! ( $.F V a f G g +.%.E ` L ~ ' ' ~ Z R L F j ) R y X.U n k ( F F k d d q ",
"......' ! F c k V Z ! ! R R M Z V G F F ) %.*.*.` ` ' ~ ! V M ( R G R ( i m S { R W Y / G a a 3 ",
"R ) %.' R R M c V k F T T N a k k j ( ,.%.u.*.>.*. .` L R F M ! R G G R j j N &.<.T o. .( f a 9 "
};
