/* XPM */
static char *cc255c3f3dbf44a7bbbcee6bdcb91907Yrn0F4Z8sCy0dXPU[] = {
/* columns rows colors chars-per-pixel */
"48 48 221 2 ",
"   c #28170B",
".  c #2B190E",
"X  c #2E1C10",
"o  c #321D14",
"O  c #381F18",
"+  c #342215",
"@  c #3A2116",
"#  c #362418",
"$  c #3B251A",
"%  c #3E2A1D",
"&  c #3E362E",
"*  c #42251D",
"=  c #432A1D",
"-  c #482B1F",
";  c #452723",
":  c #442C21",
">  c #4B2D23",
",  c #542E27",
"<  c #453325",
"1  c #4C3125",
"2  c #4A372A",
"3  c #4D352A",
"4  c #533225",
"5  c #5A3624",
"6  c #53342A",
"7  c #5B352C",
"8  c #543B2D",
"9  c #5E3A2E",
"0  c #4B3B3D",
"q  c #5E3430",
"w  c #543D31",
"e  c #5C3B32",
"r  c #633B2C",
"t  c #643E35",
"y  c #5D4234",
"u  c #574338",
"i  c #6A432C",
"p  c #6C4334",
"a  c #64433A",
"s  c #6D443B",
"d  c #664839",
"f  c #72463B",
"g  c #744A3D",
"h  c #784938",
"j  c #7E533E",
"k  c #4A3A44",
"l  c #37444E",
"z  c #3F5160",
"x  c #544949",
"c  c #4B4653",
"v  c #585558",
"b  c #644C45",
"n  c #6B4C43",
"m  c #754B42",
"M  c #7D4D44",
"N  c #6A5245",
"B  c #745346",
"V  c #7D5144",
"C  c #7A544B",
"Z  c #795A4C",
"A  c #6D5C5A",
"S  c #755956",
"D  c #4C5B65",
"F  c #585C63",
"G  c #745F61",
"H  c #4E697A",
"J  c #566D7E",
"K  c #77696A",
"L  c #666B76",
"P  c #767377",
"I  c #834A39",
"U  c #8F563F",
"Y  c #834E45",
"T  c #835344",
"R  c #8C5543",
"E  c #88564A",
"W  c #985A46",
"Q  c #935C4C",
"!  c #8A5A52",
"~  c #935D53",
"^  c #9A5D56",
"/  c #97614D",
"(  c #85635B",
")  c #876C5D",
"_  c #936153",
"`  c #9B6254",
"'  c #93615A",
"]  c #996858",
"[  c #A6644A",
"{  c #A86655",
"}  c #A3645A",
"|  c #A56B5C",
" . c #A96B5B",
".. c #B26E59",
"X. c #876A66",
"o. c #966A68",
"O. c #98736A",
"+. c #8A7372",
"@. c #88787C",
"#. c #977877",
"$. c #A86C62",
"%. c #B46F66",
"&. c #AB7466",
"*. c #A3736B",
"=. c #AB746B",
"-. c #B37264",
";. c #BA7463",
":. c #B2746B",
">. c #B9796A",
",. c #A87976",
"<. c #B77971",
"1. c #C37B6D",
"2. c #98817A",
"3. c #A5827C",
"4. c #B3857A",
"5. c #CE8773",
"6. c #C5857A",
"7. c #3C7A99",
"8. c #456C85",
"9. c #47738B",
"0. c #5C7587",
"q. c #467995",
"w. c #597D94",
"e. c #677785",
"r. c #787B85",
"t. c #667E93",
"y. c #757F90",
"u. c #847B84",
"i. c #8A7C84",
"p. c #847D88",
"a. c #977D85",
"s. c #3C84A9",
"d. c #3A8EB8",
"f. c #3D93BD",
"g. c #49809D",
"h. c #58839C",
"j. c #6D808D",
"k. c #79818D",
"l. c #698497",
"z. c #7D8292",
"x. c #798699",
"c. c #768A9D",
"v. c #7C8D9F",
"b. c #4789AB",
"n. c #5487A4",
"m. c #5C8BA5",
"M. c #538CAB",
"N. c #5B8FAC",
"B. c #5891AE",
"V. c #438EB4",
"C. c #4E92B6",
"Z. c #4394BC",
"A. c #4A96BC",
"S. c #4E99BF",
"D. c #5593B5",
"F. c #5C94B4",
"G. c #5296BA",
"H. c #5C97BA",
"J. c #5499BE",
"K. c #5B9ABC",
"L. c #668BA4",
"P. c #6B8EA5",
"I. c #648EAA",
"U. c #738AA0",
"Y. c #7A8DA1",
"T. c #6B92AC",
"R. c #7992A7",
"E. c #7492AB",
"W. c #6295B3",
"Q. c #6796B3",
"!. c #6C99B5",
"~. c #629BBD",
"^. c #6B9DBC",
"/. c #769AB3",
"(. c #7A9CB6",
"). c #77A4BF",
"_. c #3C96C3",
"`. c #3C99C6",
"'. c #3C9DCC",
"]. c #389FD1",
"[. c #3EA0CF",
"{. c #38A3D6",
"}. c #4297C1",
"|. c #449AC4",
" X c #4B9AC3",
".X c #439ECB",
"XX c #4B9ECA",
"oX c #539DC4",
"OX c #5B9DC2",
"+X c #519FC8",
"@X c #42A0CE",
"#X c #4BA1CC",
"$X c #5BA2C7",
"%X c #55A2CA",
"&X c #42A2D1",
"*X c #4EA5D1",
"=X c #66A3C6",
"-X c #7BA7C3",
";X c #87838B",
":X c #988689",
">X c #878997",
",X c #978B95",
"<X c #89929F",
"1X c #99929C",
"2X c #A88989",
"3X c #AD9194",
"4X c #848FA4",
"5X c #8694A6",
"6X c #9597A4",
"7X c #8A9FB4",
"8X c #A49CA5",
"9X c #87A5BB",
"0X c #9BA1B3",
"qX c #B1A4AB",
"wX c #A3A2B1",
"eX c #CB948C",
"rX c #D59488",
"tX c #CA9290",
"yX c #CC9997",
"uX c #E3A698",
"iX c #D9ACA4",
/* pixels */
"{.{.{.{.{.{.{.{.{.{.{.{.{.{.{.{.{.{.{.{.{.{.{.{.{.{.{.{.{.{.{.{.'.{.{.{.{.{.{.{.{.{.{.{.{.{.{.{.",
"{.{.{.{.{.{.{.{.{.{.{.{.{.{.{.{.{.{.{.`.{.{.{.{.{.{.{.{.{.{.{.|.'.{.{.{.{.{.{.{.{.{.{.{.{.{.{.{.",
"{.{.{.{.{.{.{.{.{.{.{.{.{.{.{.{.{.{.{.f.{.#X{.{..XZ.{.{.{.{.{.n.{.{.{.{.{.{.{.{.{.{.{.{.{.{.{.{.",
"{.{.{.{.{.{.{.{.{.{.{.{.{.{.&X{..X[.'.s.'.$Xf.{.}.g.'.'.{.{.'.h.{.{.@X{.{.{.{.{.{.{.{.{.{.{.{.{.",
"{.{.{.{.{.{.{.{.{.{.{.{.{.{.$X{..XS.'.s.A.^.s.].B.J |.|.{.{.m.C.{.#X X{.{.{.{.{.{.{.{.{.{.{.{.{.",
"{.{.{.{.{.{.{.{.'.`.{..X[.{.=X#X.XP.`.7.M.^.9._.l.F A.A.{.{.r.|.{.Y.@X{.{.{.{.{.{.{.{.{.{.{.{.{.",
"{.{.{.{.{.{.{.{.{.b.S.{.m.{.%X^. Xz._.8.m.!.L d.k.v B.A.{.#X@.{.oX>X{.{.&X{.{.{.{.{.XX.X{.{.{.{.",
"{.{.{.{.{.{.{.{.{.{.0.W.B.N. X8XH.x.M.v J K S l ( x e.A.{.5Xw.{.4XH.{.XXoX{.{.{.{.Q.H.{.{.{.{.{.",
"{.{.{.{.{.{.OX{.{.{.b.e.Q.+.D.3X<Xl.Z 4 5 R ' o Q : p & 7.3.A.#X2X.XJ.T.N.{.{.#X>XH.{.{.{.{.{.{.",
"{.{.{.{.{.{.&X/.OX{.{.0.P ;X+.3.:.3 / : i [ &.$ | * R @ 9 | 7.<XY. Xz.j.[.{.E.:X X{.{.{.{.{.{.{.",
"{.{.{.{.{.{.{.&X5X/.{.`.A #.| ` ;.4 { 6 h [ :.$ $.: p $ ] V < 4.W.i.+. XXX>X:XXX{.f.`.{.{.{.{.{.",
"{.{.{.{.{.{.{.{.@X6X6X&Xw.E >.[ ..p Q p i r  .$ $.$ 6 6 6.> g O.:Xo.B.~.:Xi..X_.q.d.{.{.{.{.{.{.",
"{.{.{.{.{.&X{. X X&X1X3XN.b ] ;.[ I W R i 5 U * o.= 9 T -.. ] B O.r.4X,.u.}.8.H f..X|.{.{.{.{.{.",
"{.{.{.{.[.{.oXK.D.z.G.1X5.T g | R W I = - 5 W 4 o.> s ! Z 1 ] S n C &.@.7.k 9.F.j.n.d.V.}.{.{.{.",
"{.{.{..XG.m.N. XR.T.i.i.-.5.R 5 >.[ W h . . f : o.: 9 s   p ( X.C | ( c 0 w.O.K 9.9.l.B.%X*X{.{.",
"{.{.{.{.{.|.l.+.r.P.,X+.{ 1.Q 5 5 y - I y   f 1 d > 8 s * = a % E j @ t #._ x D e.2.9X-X{.{.{.{.",
"{.{.{.oX~..X{..Xl.] o.~ ;...{ R i i + d .   B n % e 1 1 e V 8 / h > / | a D K &.qX=X{.{.{.].{.{.",
"{.{.{.{.oX4X4X,X<XR.@.` } ~ h $.# .   , 7 #   : B $ > = m $ $ Q E ..T u X.] :X=XV.9.9.b.f.{.{.{.",
"{.{.}.A.{.{.K.4X2X6.5.1.-.` 7 . . 1 3 $ V d t N # = g + d m ^ Y p f j ` Q B N v q.f.`.V.b.Z.{.{.",
"{.{.`.}.n.w.w.t.t.p.*.>.1.E s s Y ) + X % u # %   + < . < *.t . 8 j  .` T g u u e u x D H q.f.{.",
"{.{.{.Z.b.n.q.J A ! ~ ` -.~ p + * 3 3 u * C %   $ w . < X 2 X $ ] ` p m m s b F J w.b. X.X[.{.{.",
"{.{.#XOX^./.7X5X,X,.:.<.~ s f > > ; , N < < < o , N . n $ . : E V t > E *.O.#.;X;Xc.T.F.J.XX{.{.",
"{.{.{.{..XG.P.z.#.=.&.$.~ s e a > ) o + S < n $ : # : $ . + u 8 6 t f s t.m.M.C.}.'.{.{.{.{.{.{.",
"{.{.{.{..X XF.P.z.;XX.T f f t d y ) o o % . @ o @ $ > .   X Z * * - 4 w F 9.f.{.{.{.{.{.{.{.{.{.",
"{.{.{.{.{.{.{.'.|.S.q.= - , * 4 $ o X + .   .   > O X . + X % 6   + . v D.Z._.{.{.{.{.{.{.{.{.{.",
"{.{.{.{.{.{.{. XI.c.i.o.f M o d 8 e y : u       o @ t : B > Z $.- ] { ;.>.3.>XH.{.{.{.{.{.{.{.{.",
"{.{. XF.I.U.x.x.z.#.=.:.:.| p T ! Y N ; $ X     . > 8 # > , < M ^ _  .;.,.:X,.<.:X>XQ.{.{.{.{.{.",
"{..X X X X.XoXU.a.#.;X@.E ] M Y s @ + w 3 o     + @ e d $ s o 1 r } &.<.4.2X>Xv.R.Y.,X<XQ.@X{.{.",
"{.{.{.{.G.U.x.U.Q.R.:X2X6.<.=.7 o e 8 , 3 . . * d o 7 $ N V O * 4 >.%.X.T.R.>X:X:X:Xv.K.J.K.oX@X",
"{.{..XF. X{.XX^.6X8X9XyXrXeXa Z e f q > $ + u < $ * @ @ 2 Y = 4._ <.>.-.A _.{.{.{..XW.c.W.{.{.{.",
"{.{.{.{.{.XX#X=X$X$XiXuXeXtX,.| Y > : e n 3 ; + w w y N O.r a } 1.rX>. . .N f.{.{.{.{.{.{.{.{.{.",
"{.{.{.{.{.&X#X{.=XiXuXeXuXyX$.E Q - j C o.% w . 7 7 r B _ 9 p  .-.;.rX>.Q ` b b.{.{.{.{.{.{.{.{.",
"{.{.{.{.{.{.{.$XqXyXtXyXtX&.o.+.0 f m 7 7 : d 8 6 m 8 Z y ^ ^ R :.=.O.3X2X( m x g.{.{.{.{.{.{.{.",
"{.{.{.{.{.{.&X-X7X8X7X3X*.z.c.J.u.' ! M 4 4 > d * ~ e 4 Y } -.' K 3.*.r.6X8Xe.f l d.{.{.{.{.{.{.",
"{.{.{.{.{.{.&X#X).=X3Xi.I.F.J.>X_ p.a.K ~ t Z a ( ' } #.$.:.+.2XG l.:XO.m.(.6XM.S z `.{.{.{.{.{.",
"{.{.{.{.{.{.&X%XOX5XI.G. XJ.E.o.@.~.o.>X:.C 1XL.a.2X:.<.r.:.i.c.:XG F.c.k.C.$X(. Xw.8.d.{.{.{.{.",
"{.{.{.{.{.{.&XoX4XXX.X.X XOXj.O.oX4Xp.:Xo.@.R.I.>X8X<.,.R.*.>Xy.E.t.L  XW.M.|.#X^.&XM.b.'.{.{.{.",
"{.{.{.{.{.{.#XR.@X{.{.'.#X X@.T.&Xa.Q.1Xe.1XH.N.Y.wXa.@./.p.;Xl. XR.L h.@X.XA.{.&X%X{.|.'.{.{.{.",
"{.{.{.{.{.{.H.@X{.{.{.{.{.L.Y.{.~.,X~.5Xf.3X.XF.W.wXY.p.!.D.a.F.L.oXF.L }.{.{.'.{.{.{.{.{.{.{.{.",
"{.{.{.{.{.XX{.{.{.{.{.{.G.v.{.{.1X+X~.~.#X2X{.D. X8XH.U.Q.#Xy.T.D..XK.Z.h.'.{.{.{.{.{.{.{.{.{.{.",
"{.{.{.{.{.{.{.{.{.{.{..XI.XX{.&X6X{.OX#X+X,X{.G.'.0X.XW.I.+XD.P..XS.{.XXV.A.{.{.{.{.{.{.{.{.{.{.",
"{.{.{.{.{.{.{.{.{.{.{. XXX{.{./.#X{.+X{.K.E.{.G.{.9X{.oXN.XX{.F. X X{.{.{.}.'.{.{.{.{.{.{.{.{.{.",
"{.{.{.{.{.{.{.{.{.{.{..X{.{.{.(.{.{.XX{.!.OX{. X{.-X{.XXG.&X{. XXX{.{.{.{.{.{.{.{.{.{.{.{.{.{.{.",
"{.{.{.{.{.{.{.{.{.{.{.{.{.{.%X%X{.{.{.{./..X{.|.{.=X{.XX|.{.{.{.{.{.{.{.{.{.{.{.{.{.{.{.{.{.{.{.",
"{.{.{.{.{.{.{.{.{.{.{.{.{.{.%X{.{.{.{.{.~.&X{..X{.=X{..X{.{.{.{.{.{.{.{.{.{.{.{.{.{.{.{.{.{.{.{.",
"{.{.{.{.{.{.{.{.{.{.{.{.{.{.&X{.{.{.{.{.OX{.{.{.{.*X&X{.{.{.{.{.{.{.{.{.{.{.{.{.{.{.{.{.{.{.{.{.",
"{.{.{.{.{.{.{.{.{.{.{.{.{.{.{.{.{.{.{.&X@X{.{.{.{.{.&X{.{.{.{.{.{.{.{.{.{.{.{.{.{.{.{.{.{.{.{.{.",
"{.{.{.{.{.{.{.{.{.{.{.{.{.{.{.{.{.{.{.{.{.{.{.{.{.{.{.{.{.{.{.{.{.{.{.{.{.{.{.{.{.{.{.{.{.{.{.{."
};
